<mxfile type="github" version="12.9.6" etag="Pk42sDZafpQb9KrN3mqr" agent="5.0 (Windows NT 10.0; Win64; x64) AppleWebKit/537.36 (KHTML, like Gecko) Chrome/70.0.3538.102 Safari/537.36 Edge/18.18363" modified="2020-04-01T02:00:40.884Z" host="app.diagrams.net">
  <diagram id="v8ACqfiUcGcU-FBjuVRV" name="Block Diagram">
    <mxGraphModel grid="1" shadow="0" math="0" pageHeight="1169" pageWidth="827" pageScale="1" page="1" fold="1" arrows="1" connect="1" tooltips="1" guides="1" gridSize="10" dy="657" dx="1044">
      <root>
        <mxCell id="0" />
        <mxCell id="1" parent="0" />
        <mxCell id="cKnyVmgL8Dwh8mg7-z-A-60" parent="1" target="cKnyVmgL8Dwh8mg7-z-A-3" source="cKnyVmgL8Dwh8mg7-z-A-2" edge="1" style="edgeStyle=orthogonalEdgeStyle;rounded=0;orthogonalLoop=1;jettySize=auto;html=1;strokeColor=#000000;fontSize=12;entryX=0;entryY=0.531;entryDx=0;entryDy=0;entryPerimeter=0;exitX=0.589;exitY=-0.004;exitDx=0;exitDy=0;exitPerimeter=0;">
          <mxGeometry as="geometry" relative="1">
            <mxPoint as="targetPoint" y="393" x="90" />
            <Array as="points">
              <mxPoint y="394" x="32" />
            </Array>
          </mxGeometry>
        </mxCell>
        <mxCell id="cKnyVmgL8Dwh8mg7-z-A-2" value="O2 Tank" parent="1" style="shape=mxgraph.pid.vessels.tank;html=1;align=center;verticalLabelPosition=bottom;verticalAlign=top;dashed=0;" vertex="1">
          <mxGeometry as="geometry" height="80" width="20" y="420" x="20" />
        </mxCell>
        <mxCell id="cKnyVmgL8Dwh8mg7-z-A-65" parent="1" target="KgopnNe5zrmSENhDzvm8-3" source="cKnyVmgL8Dwh8mg7-z-A-3" edge="1" style="edgeStyle=orthogonalEdgeStyle;rounded=0;orthogonalLoop=1;jettySize=auto;html=1;entryX=0;entryY=0.75;entryDx=0;entryDy=0;strokeColor=#000000;fontSize=12;">
          <mxGeometry as="geometry" relative="1">
            <mxPoint as="targetPoint" y="392.5" x="188" />
          </mxGeometry>
        </mxCell>
        <mxCell id="cKnyVmgL8Dwh8mg7-z-A-3" value="Oxygen Flow meter&lt;br&gt;and pressure regulator" parent="1" style="shape=image;html=1;verticalAlign=top;verticalLabelPosition=bottom;labelBackgroundColor=#ffffff;imageAspect=0;aspect=fixed;image=https://cdn1.iconfinder.com/data/icons/common-version-3-0/1024/Meter-128.png" vertex="1">
          <mxGeometry as="geometry" height="48" width="48" y="368.5" x="90" />
        </mxCell>
        <mxCell id="cKnyVmgL8Dwh8mg7-z-A-22" value="" parent="1" target="cKnyVmgL8Dwh8mg7-z-A-12" source="cKnyVmgL8Dwh8mg7-z-A-10" edge="1" style="edgeStyle=orthogonalEdgeStyle;rounded=0;orthogonalLoop=1;jettySize=auto;html=1;">
          <mxGeometry as="geometry" relative="1" />
        </mxCell>
        <mxCell id="cKnyVmgL8Dwh8mg7-z-A-10" value="OEM-EP&lt;br&gt;Pressure&lt;br&gt;Regulator" parent="1" style="shape=image;html=1;verticalAlign=top;verticalLabelPosition=bottom;labelBackgroundColor=#ffffff;imageAspect=0;aspect=fixed;image=https://cdn2.iconfinder.com/data/icons/miscellaneous-12/24/miscellaneous-25-128.png" vertex="1">
          <mxGeometry as="geometry" height="45" width="45" y="272" x="369" />
        </mxCell>
        <mxCell id="cKnyVmgL8Dwh8mg7-z-A-25" parent="1" target="cKnyVmgL8Dwh8mg7-z-A-23" source="cKnyVmgL8Dwh8mg7-z-A-52" edge="1" style="edgeStyle=orthogonalEdgeStyle;rounded=0;orthogonalLoop=1;jettySize=auto;html=1;entryX=1;entryY=0.85;entryDx=0;entryDy=0;entryPerimeter=0;exitX=1;exitY=0.5;exitDx=0;exitDy=0;">
          <mxGeometry as="geometry" relative="1">
            <mxPoint as="sourcePoint" y="281.5" x="644" />
          </mxGeometry>
        </mxCell>
        <mxCell id="cKnyVmgL8Dwh8mg7-z-A-53" parent="1" target="cKnyVmgL8Dwh8mg7-z-A-52" source="cKnyVmgL8Dwh8mg7-z-A-12" edge="1" style="edgeStyle=orthogonalEdgeStyle;rounded=0;orthogonalLoop=1;jettySize=auto;html=1;entryX=0;entryY=0.5;entryDx=0;entryDy=0;exitX=1;exitY=0.5;exitDx=0;exitDy=0;">
          <mxGeometry as="geometry" relative="1">
            <mxPoint as="sourcePoint" y="281.66666666666674" x="570" />
            <mxPoint as="targetPoint" y="293" x="590" />
            <Array as="points">
              <mxPoint y="293" x="570" />
            </Array>
          </mxGeometry>
        </mxCell>
        <mxCell id="cKnyVmgL8Dwh8mg7-z-A-12" value="Humidifier" parent="1" style="rounded=0;whiteSpace=wrap;html=1;labelPosition=center;verticalLabelPosition=bottom;align=center;verticalAlign=top;" vertex="1">
          <mxGeometry as="geometry" height="87.25" width="120" y="248" x="450" />
        </mxCell>
        <mxCell id="cKnyVmgL8Dwh8mg7-z-A-43" parent="1" target="cKnyVmgL8Dwh8mg7-z-A-10" source="cKnyVmgL8Dwh8mg7-z-A-17" edge="1" style="edgeStyle=orthogonalEdgeStyle;rounded=0;orthogonalLoop=1;jettySize=auto;html=1;entryX=0.5;entryY=0;entryDx=0;entryDy=0;strokeColor=#FF0000;">
          <mxGeometry as="geometry" relative="1">
            <Array as="points">
              <mxPoint y="150" x="204" />
              <mxPoint y="150" x="392" />
              <mxPoint y="260" x="392" />
              <mxPoint y="260" x="391" />
            </Array>
          </mxGeometry>
        </mxCell>
        <mxCell id="cKnyVmgL8Dwh8mg7-z-A-44" value="Controls output pressure" parent="cKnyVmgL8Dwh8mg7-z-A-43" style="text;html=1;align=center;verticalAlign=middle;resizable=0;points=[];labelBackgroundColor=#ffffff;" vertex="1" connectable="0">
          <mxGeometry as="geometry" relative="1" y="-2" x="-0.3836">
            <mxPoint as="offset" />
          </mxGeometry>
        </mxCell>
        <mxCell id="cKnyVmgL8Dwh8mg7-z-A-58" value="Turns on and off" parent="1" target="cKnyVmgL8Dwh8mg7-z-A-50" source="cKnyVmgL8Dwh8mg7-z-A-17" edge="1" style="edgeStyle=orthogonalEdgeStyle;rounded=0;orthogonalLoop=1;jettySize=auto;html=1;entryX=0.502;entryY=-0.132;entryDx=0;entryDy=0;entryPerimeter=0;fontSize=12;strokeColor=#FF0000;">
          <mxGeometry as="geometry" relative="1">
            <Array as="points">
              <mxPoint y="130" x="210" />
              <mxPoint y="130" x="476" />
            </Array>
          </mxGeometry>
        </mxCell>
        <mxCell id="cKnyVmgL8Dwh8mg7-z-A-59" value="Turns on and off" parent="1" target="cKnyVmgL8Dwh8mg7-z-A-49" source="cKnyVmgL8Dwh8mg7-z-A-17" edge="1" style="edgeStyle=orthogonalEdgeStyle;rounded=0;orthogonalLoop=1;jettySize=auto;html=1;entryX=0.506;entryY=-0.021;entryDx=0;entryDy=0;entryPerimeter=0;fontSize=12;strokeColor=#FF0000;">
          <mxGeometry as="geometry" relative="1">
            <Array as="points">
              <mxPoint y="110" x="220" />
              <mxPoint y="110" x="540" />
            </Array>
          </mxGeometry>
        </mxCell>
        <mxCell id="cKnyVmgL8Dwh8mg7-z-A-17" value="Arduino Board" parent="1" style="dashed=0;outlineConnect=0;html=1;align=right;labelPosition=left;verticalLabelPosition=top;verticalAlign=bottom;shape=mxgraph.weblogos.arduino;fillColor=#36868D;strokeColor=none" vertex="1">
          <mxGeometry as="geometry" height="32" width="67.4" y="64" x="170" />
        </mxCell>
        <mxCell id="cKnyVmgL8Dwh8mg7-z-A-28" parent="1" target="cKnyVmgL8Dwh8mg7-z-A-27" source="cKnyVmgL8Dwh8mg7-z-A-23" edge="1" style="edgeStyle=orthogonalEdgeStyle;rounded=0;orthogonalLoop=1;jettySize=auto;html=1;exitX=0;exitY=0.5;exitDx=0;exitDy=0;exitPerimeter=0;entryX=0;entryY=0.5;entryDx=0;entryDy=0;">
          <mxGeometry as="geometry" relative="1">
            <Array as="points">
              <mxPoint y="300" x="750" />
              <mxPoint y="300" x="760" />
            </Array>
          </mxGeometry>
        </mxCell>
        <mxCell id="KgopnNe5zrmSENhDzvm8-18" parent="1" target="cKnyVmgL8Dwh8mg7-z-A-26" source="cKnyVmgL8Dwh8mg7-z-A-23" edge="1" style="edgeStyle=orthogonalEdgeStyle;rounded=0;orthogonalLoop=1;jettySize=auto;html=1;entryX=1;entryY=0.5;entryDx=0;entryDy=0;exitX=1.03;exitY=-0.053;exitDx=0;exitDy=0;exitPerimeter=0;">
          <mxGeometry as="geometry" relative="1">
            <Array as="points">
              <mxPoint y="313" x="690" />
              <mxPoint y="364" x="690" />
              <mxPoint y="364" x="710" />
              <mxPoint y="436" x="710" />
            </Array>
          </mxGeometry>
        </mxCell>
        <mxCell id="cKnyVmgL8Dwh8mg7-z-A-23" value="" parent="1" style="verticalLabelPosition=bottom;align=center;dashed=0;html=1;verticalAlign=top;shape=mxgraph.pid.piping.hose_connection;pointerEvents=1;rotation=-180;strokeWidth=4;" vertex="1">
          <mxGeometry as="geometry" height="24" width="20" y="287.5" x="710" />
        </mxCell>
        <mxCell id="cKnyVmgL8Dwh8mg7-z-A-48" value="Monitors exhale flow" parent="1" source="cKnyVmgL8Dwh8mg7-z-A-26" edge="1" style="edgeStyle=orthogonalEdgeStyle;rounded=0;orthogonalLoop=1;jettySize=auto;html=1;exitX=0.5;exitY=0;exitDx=0;exitDy=0;fontSize=12;strokeColor=#0000FF;">
          <mxGeometry as="geometry" relative="1" x="0.4006">
            <mxPoint as="sourcePoint" y="380" x="580" />
            <mxPoint as="targetPoint" y="60" x="200" />
            <Array as="points">
              <mxPoint y="60" x="670" />
              <mxPoint y="60" x="237" />
            </Array>
            <mxPoint as="offset" />
          </mxGeometry>
        </mxCell>
        <mxCell id="KgopnNe5zrmSENhDzvm8-17" value="" parent="1" target="KgopnNe5zrmSENhDzvm8-13" source="cKnyVmgL8Dwh8mg7-z-A-26" edge="1" style="edgeStyle=orthogonalEdgeStyle;rounded=0;orthogonalLoop=1;jettySize=auto;html=1;">
          <mxGeometry as="geometry" relative="1" />
        </mxCell>
        <mxCell id="cKnyVmgL8Dwh8mg7-z-A-26" value="SFM3300-AW&lt;br&gt;Flow sensor" parent="1" style="shape=image;html=1;verticalAlign=top;verticalLabelPosition=bottom;labelBackgroundColor=#ffffff;imageAspect=0;aspect=fixed;image=https://cdn2.iconfinder.com/data/icons/freecns-cumulus/16/519618-117_CoverFlow-128.png" vertex="1">
          <mxGeometry as="geometry" height="40" width="40" y="416.5" x="650" />
        </mxCell>
        <mxCell id="cKnyVmgL8Dwh8mg7-z-A-27" value="Standard Tube &lt;br&gt;and Mask" parent="1" style="shape=image;html=1;verticalAlign=top;verticalLabelPosition=bottom;labelBackgroundColor=#ffffff;imageAspect=0;aspect=fixed;image=https://cdn1.iconfinder.com/data/icons/outbreak-epidemic/100/Disease-22-128.png" vertex="1">
          <mxGeometry as="geometry" height="50" width="50" y="274.5" x="760" />
        </mxCell>
        <mxCell id="cKnyVmgL8Dwh8mg7-z-A-34" value="Y-piece with&lt;br&gt;non-return valve" parent="1" style="text;html=1;align=center;verticalAlign=middle;resizable=0;points=[];autosize=1;" vertex="1">
          <mxGeometry as="geometry" height="30" width="100" y="250" x="669" />
        </mxCell>
        <mxCell id="cKnyVmgL8Dwh8mg7-z-A-47" value="Sends settings" parent="1" target="cKnyVmgL8Dwh8mg7-z-A-17" source="cKnyVmgL8Dwh8mg7-z-A-46" edge="1" style="edgeStyle=orthogonalEdgeStyle;rounded=0;orthogonalLoop=1;jettySize=auto;html=1;strokeColor=#0000FF;">
          <mxGeometry as="geometry" relative="1" />
        </mxCell>
        <mxCell id="cKnyVmgL8Dwh8mg7-z-A-46" value="UI" parent="1" style="pointerEvents=1;shadow=0;dashed=0;html=1;strokeColor=none;fillColor=#505050;labelPosition=center;verticalLabelPosition=bottom;verticalAlign=top;outlineConnect=0;align=center;shape=mxgraph.office.devices.cell_phone_generic;" vertex="1">
          <mxGeometry as="geometry" height="47" width="26" y="53" x="24" />
        </mxCell>
        <mxCell id="cKnyVmgL8Dwh8mg7-z-A-49" value="Heater" parent="1" style="shape=mxgraph.pid.heat_exchangers.heat_exchanger_(coil_tubes);html=1;align=center;verticalLabelPosition=bottom;verticalAlign=top;dashed=0;" vertex="1">
          <mxGeometry as="geometry" height="10" width="60" y="296" x="510" />
        </mxCell>
        <mxCell id="cKnyVmgL8Dwh8mg7-z-A-50" value="Atomizer" parent="1" style="ellipse;shape=doubleEllipse;whiteSpace=wrap;html=1;aspect=fixed;labelPosition=center;verticalLabelPosition=bottom;align=center;verticalAlign=top;" vertex="1">
          <mxGeometry as="geometry" height="31" width="31" y="278.5" x="460" />
        </mxCell>
        <mxCell id="cKnyVmgL8Dwh8mg7-z-A-56" parent="1" target="cKnyVmgL8Dwh8mg7-z-A-17" source="cKnyVmgL8Dwh8mg7-z-A-52" edge="1" style="edgeStyle=orthogonalEdgeStyle;rounded=0;orthogonalLoop=1;jettySize=auto;html=1;strokeColor=#0000FF;">
          <mxGeometry as="geometry" relative="1">
            <Array as="points">
              <mxPoint y="80" x="619" />
            </Array>
          </mxGeometry>
        </mxCell>
        <mxCell id="cKnyVmgL8Dwh8mg7-z-A-57" value="Monitors humidity and temperature" parent="cKnyVmgL8Dwh8mg7-z-A-56" style="text;html=1;align=center;verticalAlign=middle;resizable=0;points=[];labelBackgroundColor=#ffffff;" vertex="1" connectable="0">
          <mxGeometry as="geometry" relative="1" x="0.272">
            <mxPoint as="offset" />
          </mxGeometry>
        </mxCell>
        <mxCell id="cKnyVmgL8Dwh8mg7-z-A-52" value="Humidity and&lt;br&gt;temperature&lt;br&gt;sensor" parent="1" style="shape=image;html=1;verticalAlign=top;verticalLabelPosition=bottom;labelBackgroundColor=#ffffff;imageAspect=0;aspect=fixed;image=https://cdn4.iconfinder.com/data/icons/photographer-7/128/light-meter-measurement-sensor-device-128.png" vertex="1">
          <mxGeometry as="geometry" height="30" width="30" y="278" x="604" />
        </mxCell>
        <mxCell id="KgopnNe5zrmSENhDzvm8-9" parent="1" target="KgopnNe5zrmSENhDzvm8-3" source="KgopnNe5zrmSENhDzvm8-2" edge="1" style="edgeStyle=orthogonalEdgeStyle;rounded=0;orthogonalLoop=1;jettySize=auto;html=1;exitX=0.985;exitY=0.69;exitDx=0;exitDy=0;exitPerimeter=0;entryX=0;entryY=0.25;entryDx=0;entryDy=0;">
          <mxGeometry as="geometry" relative="1" />
        </mxCell>
        <mxCell id="KgopnNe5zrmSENhDzvm8-2" value="Air Compressor" parent="1" style="verticalLabelPosition=bottom;outlineConnect=0;align=center;dashed=0;html=1;verticalAlign=top;shape=mxgraph.pid.compressors.ac_air_compressor" vertex="1">
          <mxGeometry as="geometry" height="56" width="80" y="204" x="40" />
        </mxCell>
        <mxCell id="KgopnNe5zrmSENhDzvm8-12" value="" parent="1" target="KgopnNe5zrmSENhDzvm8-10" source="KgopnNe5zrmSENhDzvm8-3" edge="1" style="edgeStyle=orthogonalEdgeStyle;rounded=0;orthogonalLoop=1;jettySize=auto;html=1;">
          <mxGeometry as="geometry" relative="1" />
        </mxCell>
        <mxCell id="KgopnNe5zrmSENhDzvm8-3" value="Mixer&lt;br&gt;(Manual)" parent="1" style="shape=image;html=1;verticalAlign=top;verticalLabelPosition=bottom;labelBackgroundColor=#ffffff;imageAspect=0;aspect=fixed;image=https://cdn0.iconfinder.com/data/icons/audio-controls-ui-icons/40/mix-128.png" vertex="1">
          <mxGeometry as="geometry" height="60" width="60" y="264.5" x="190" />
        </mxCell>
        <mxCell id="KgopnNe5zrmSENhDzvm8-11" value="" parent="1" target="cKnyVmgL8Dwh8mg7-z-A-10" source="KgopnNe5zrmSENhDzvm8-10" edge="1" style="edgeStyle=orthogonalEdgeStyle;rounded=0;orthogonalLoop=1;jettySize=auto;html=1;">
          <mxGeometry as="geometry" relative="1" />
        </mxCell>
        <mxCell id="KgopnNe5zrmSENhDzvm8-10" value="HEPA&lt;br&gt;Filter" parent="1" style="verticalLabelPosition=bottom;shadow=0;dashed=0;align=center;html=1;verticalAlign=top;shape=mxgraph.electrical.abstract.filter;" vertex="1">
          <mxGeometry as="geometry" height="36" width="40" y="276.5" x="290" />
        </mxCell>
        <mxCell id="KgopnNe5zrmSENhDzvm8-16" value="" parent="1" target="KgopnNe5zrmSENhDzvm8-15" source="KgopnNe5zrmSENhDzvm8-13" edge="1" style="edgeStyle=orthogonalEdgeStyle;rounded=0;orthogonalLoop=1;jettySize=auto;html=1;">
          <mxGeometry as="geometry" relative="1" />
        </mxCell>
        <mxCell id="KgopnNe5zrmSENhDzvm8-13" value="HEPA&lt;br&gt;Filter" parent="1" style="verticalLabelPosition=bottom;shadow=0;dashed=0;align=center;html=1;verticalAlign=top;shape=mxgraph.electrical.abstract.filter;" vertex="1">
          <mxGeometry as="geometry" height="36" width="40" y="418.5" x="564" />
        </mxCell>
        <mxCell id="KgopnNe5zrmSENhDzvm8-15" value="PEEP Valve" parent="1" style="verticalLabelPosition=bottom;align=center;dashed=0;html=1;verticalAlign=top;shape=mxgraph.pid.piping.excess_flow_valve;" vertex="1">
          <mxGeometry as="geometry" height="25" width="50" y="424" x="460" />
        </mxCell>
      </root>
    </mxGraphModel>
  </diagram>
</mxfile>
